<mxfile host="app.diagrams.net" modified="2024-01-24T06:46:25.250Z" agent="Mozilla/5.0 (Macintosh; Intel Mac OS X 10_15_7) AppleWebKit/537.36 (KHTML, like Gecko) Chrome/120.0.0.0 Safari/537.36" version="22.1.18" etag="S9sPVpuHxweqG2vntIeZ" type="github">
  <diagram name="Page-1" id="RcuZzAuTiqAWB187Y7yK">
    <mxGraphModel>
      <root>
        <mxCell id="0" />
        <mxCell id="1" parent="0" />
      </root>
    </mxGraphModel>
  </diagram>
</mxfile>
